<svg>
  <symbol viewBox="0 0 80 25" id="pink-logo-mobile">
     <g>
    <path fill="#FFFFFF" d="M0,1.449c0-0.708,0.58-1.288,1.256-1.288h7.18c5.087,0,8.436,2.704,8.436,7.147v0.064 c0,4.861-4.057,7.373-8.854,7.373H2.544v6.825c0,0.708-0.58,1.288-1.288,1.288C0.58,22.859,0,22.279,0,21.571V1.449z M8.114,12.428 c3.734,0,6.182-1.996,6.182-4.958V7.405c0-3.22-2.415-4.894-6.054-4.894H2.544v9.917H8.114z"/>
    <path fill="#FFFFFF" d="M21.729,1.288C21.729,0.58,22.308,0,22.983,0c0.709,0,1.288,0.58,1.288,1.288v20.283 c0,0.708-0.579,1.288-1.288,1.288c-0.676,0-1.255-0.58-1.255-1.288V1.288z"/>
    <path fill="#FFFFFF" d="M30.87,1.32c0-0.676,0.579-1.256,1.256-1.256h0.354c0.58,0,0.934,0.29,1.288,0.74l13.684,17.45V1.256 C47.451,0.58,47.998,0,48.707,0c0.676,0,1.223,0.58,1.223,1.256v20.348c0,0.676-0.482,1.191-1.158,1.191h-0.129 c-0.548,0-0.934-0.322-1.32-0.772L33.349,4.153v17.45c0,0.676-0.547,1.256-1.255,1.256c-0.677,0-1.224-0.58-1.224-1.256V1.32z"/>
    <path fill="#FFFFFF" d="M56.3,1.288C56.3,0.58,56.879,0,57.556,0c0.708,0,1.287,0.58,1.287,1.288v12.331L71.689,0.451 C71.979,0.193,72.269,0,72.688,0c0.676,0,1.224,0.612,1.224,1.256c0,0.354-0.161,0.644-0.419,0.901l-7.984,7.92l8.564,10.561 c0.225,0.29,0.354,0.547,0.354,0.934c0,0.676-0.579,1.288-1.287,1.288c-0.483,0-0.806-0.258-1.03-0.58l-8.403-10.463l-4.862,4.861 v4.894c0,0.708-0.579,1.288-1.287,1.288c-0.677,0-1.256-0.58-1.256-1.288V1.288z"/>
    </g>
  </symbol>
  <symbol viewBox="0 0 150 50" id="pink-logo-tablet">
    <g>
    <path fill="#FFFFFF" d="M71.874,18.661c0-0.708,0.58-1.288,1.256-1.288h7.18c5.087,0,8.436,2.704,8.436,7.146v0.064 c0,4.861-4.057,7.373-8.854,7.373h-5.475v6.825c0,0.708-0.58,1.288-1.288,1.288c-0.676,0-1.256-0.58-1.256-1.288V18.661z M79.988,29.641c3.734,0,6.182-1.996,6.182-4.959v-0.063c0-3.22-2.414-4.894-6.053-4.894h-5.699v9.917H79.988L79.988,29.641z"/>
    <path fill="#FFFFFF" d="M93.603,18.5c0-0.708,0.579-1.288,1.255-1.288c0.709,0,1.288,0.58,1.288,1.288v20.283 c0,0.708-0.579,1.287-1.288,1.287c-0.676,0-1.255-0.579-1.255-1.287V18.5z"/>
    <path fill="#FFFFFF" d="M102.744,18.532c0-0.676,0.58-1.256,1.256-1.256h0.354c0.58,0,0.935,0.29,1.288,0.74l13.684,17.45V18.468 c0-0.676,0.547-1.256,1.256-1.256c0.676,0,1.224,0.58,1.224,1.256v20.349c0,0.676-0.481,1.19-1.158,1.19h-0.129c-0.548,0-0.935-0.321-1.319-0.772l-13.975-17.868v17.45c0,0.676-0.547,1.256-1.256,1.256c-0.676,0-1.223-0.58-1.223-1.256V18.532 H102.744z"/>
    <path fill="#FFFFFF" d="M128.173,18.5c0-0.708,0.58-1.288,1.257-1.288c0.708,0,1.286,0.58,1.286,1.288v12.331l12.848-13.168 c0.29-0.257,0.579-0.451,0.998-0.451c0.676,0,1.225,0.612,1.225,1.256c0,0.354-0.162,0.644-0.42,0.901l-7.984,7.92l8.564,10.561 c0.225,0.291,0.354,0.547,0.354,0.935c0,0.676-0.578,1.288-1.286,1.288c-0.483,0-0.806-0.258-1.03-0.58l-8.402-10.463l-4.863,4.861 v4.894c0,0.708-0.578,1.288-1.286,1.288c-0.677,0-1.257-0.58-1.257-1.288V18.5H128.173z"/>
  </g>
      <path fill="#FFFFFF" d="M60.498,28.266"/>
      <path fill="#FFFFFF" d="M60.462,28.016c-0.002-0.009-5.175-21.365-5.175-21.365C54.926,4.303,52.694,0,46.688,0 c-0.829,0-1.5,0.671-1.5,1.5s0.671,1.5,1.5,1.5c4.856,0,5.575,3.729,5.639,4.143l4.767,19.701h-2.073 c-0.742-5.927-5.802-10.531-11.927-10.531s-11.186,4.604-11.927,10.531h-1.82c-0.741-5.927-5.802-10.531-11.927-10.531 S6.235,20.917,5.493,26.844H3.42L8.187,7.143C8.25,6.729,8.97,3,13.826,3c0.829,0,1.5-0.671,1.5-1.5S14.655,0,13.826,0 C7.82,0,5.588,4.303,5.227,6.651c0,0-5.173,21.356-5.175,21.365c-0.266,1.109,0.531,1.826,1.426,1.826 c0.012,0,0.023,0.004,0.036,0.004h3.982c0.741,5.926,5.802,10.53,11.927,10.53s11.185-4.604,11.927-10.53h1.814 c0.742,5.926,5.802,10.53,11.927,10.53s11.186-4.604,11.927-10.53H59c0.012,0,0.023-0.004,0.036-0.004 C59.931,29.842,60.728,29.125,60.462,28.016z M26.315,29.844c-0.715,4.272-4.421,7.531-8.896,7.531c-4.475,0-8.18-3.259-8.896-7.531 c-0.082-0.488-0.135-0.988-0.135-1.5s0.053-1.011,0.135-1.5c0.715-4.271,4.421-7.531,8.896-7.531c4.475,0,8.18,3.26,8.896,7.531 c0.082,0.489,0.135,0.988,0.135,1.5S26.397,29.355,26.315,29.844z M51.99,29.844c-0.716,4.272-4.421,7.531-8.896,7.531 c-4.475,0-8.181-3.259-8.896-7.531c-0.082-0.488-0.135-0.988-0.135-1.5s0.053-1.011,0.135-1.5c0.716-4.271,4.421-7.531,8.896-7.531 c4.475,0,8.181,3.26,8.896,7.531c0.082,0.489,0.135,0.988,0.135,1.5S52.072,29.355,51.99,29.844z"/>
  </symbol>
  <symbol viewBox="0 0 50 60" id="logo-apple">
  <path fill="#FFFFFF" d="M38.593,30.15c0.081,8.59,7.535,11.447,7.617,11.483c-0.062,0.202-1.19,4.073-3.927,8.072 c-2.365,3.457-4.82,6.901-8.688,6.973c-3.799,0.07-5.021-2.253-9.365-2.253c-4.344,0-5.702,2.182-9.298,2.32 c-3.733,0.142-6.576-3.739-8.961-7.184c-4.875-7.046-8.598-19.91-3.597-28.593c2.484-4.313,6.925-7.043,11.743-7.114 c3.666-0.069,7.126,2.466,9.366,2.466c2.241,0,6.444-3.049,10.865-2.601c1.85,0.077,7.044,0.747,10.38,5.629 C44.459,19.519,38.531,22.971,38.593,30.15 M31.453,9.062C33.435,6.662,34.769,3.323,34.405,0c-2.857,0.115-6.312,1.904-8.36,4.302 c-1.837,2.123-3.445,5.521-3.011,8.778C26.218,13.326,29.47,11.461,31.453,9.062"/>
  </symbol>
</svg>
